# xmcd
#
# Track frame offsets: 
#        183
#        18743
#        38448
#        51953
#        73018
#        94898
#        114973
#        131438
#        146788
#        163570
#        181930
#        195843
#
# Disc length: 2884 seconds
#
# Revision: 0
# Processed by: cddbd v1.5.2PL0 Copyright (c) Steve Scherf et al.
# Submitted via: ExactAudioCopy v1.0b1
#
DISCID=9d0b420c
DTITLE=Dorian van Han - No Sign of Pain
DYEAR=1993
DGENRE=Rock
TTITLE0=Watch Out!
TTITLE1=No Sign of Pain
TTITLE2=Coming Back to You
TTITLE3=I Know You Will...
TTITLE4=The Last...
TTITLE5=Silken Mask
TTITLE6=Interior Distance
TTITLE7=Suzy'Side
TTITLE8=Ice Light
TTITLE9=Save It All For Me
TTITLE10=Journey Into Fear
TTITLE11=Convoys
EXTD=
EXTT0=
EXTT1=
EXTT2=
EXTT3=
EXTT4=
EXTT5=
EXTT6=
EXTT7=
EXTT8=
EXTT9=
EXTT10=
EXTT11=
PLAYORDER=
